<svg xmlns="http://www.w3.org/2000/svg" width="238" height="333" viewBox="0 0 238 333"><defs><linearGradient id="card-bg" x1="0" y1="0" x2="0" y2="1"><stop stop-color="#253542"/><stop offset="1" stop-color="#101A22"/></linearGradient></defs><rect x="3" y="3" width="232" height="327" rx="13" fill="#202831" stroke="#7E8992" stroke-width="2"/><rect x="6" y="6" width="226" height="321" rx="11" fill="none" stroke="#4B5964" stroke-width="1.5"/><path d="M62 7H231V326H62C77 265 80 220 80 166S77 67 62 7Z" fill="#53616D"/><circle cx="181" cy="105" r="60" fill="#F3D58A" opacity=".38"/><path d="M55 228L91 168L119 196L149 142L178 188L211 153L244 194V338H55Z" fill="#293741"/><path d="M55 248L92 200L126 221L158 180L190 208L224 180L244 212V338H55Z" fill="#17232B"/><path d="M143 85L177 85L184 245H135Z" fill="#293741"/><path d="M141 85L160 59L179 85Z" fill="#17232B"/><path d="M135 143H185M133 164H187M131 188H189" stroke="#E9D6A2" stroke-width="3" opacity=".5"/><path d="M148 326L181 205H217L246 326Z" fill="#20272C"/><path d="M158 326L183 220M195 220L215 326" stroke="#D5A56C" stroke-width="3" opacity=".28"/><rect x="6" y="7" width="62" height="319" rx="5" fill="#AEB8C0"/><rect x="6" y="7" width="62" height="319" rx="5" fill="#E3E8EB" opacity=".28"/><path d="M68 7V326" fill="none" stroke="#EEF1F2" stroke-width="3.5"/><text x="37" y="70" text-anchor="middle" font-family="system-ui,-apple-system,'Segoe UI',sans-serif" font-size="42" font-weight="800" fill="#2a2a2a">0</text><svg x="178" y="12" width="46" height="46" viewBox="0 0 200 240" xmlns="http://www.w3.org/2000/svg"><defs><linearGradient id="gem-black" x1="0" y1="0" x2="1" y2="1"><stop stop-color="#909ba7"/><stop offset=".35" stop-color="#394450"/><stop offset="1" stop-color="#0b0e13"/></linearGradient><filter id="gem-shadow"><feDropShadow dx="0" dy="5" stdDeviation="5" flood-opacity=".18"/></filter></defs><g transform="translate(100 120)" filter="url(#gem-shadow)"><polygon points="-48,-78 48,-78 78,-48 78,48 48,78 -48,78 -78,48 -78,-48" fill="url(#gem-black)" stroke="#202b37" stroke-width="5"/><polygon points="-48,-78 0,-48 0,18 -78,-48" fill="#c4d0d8" opacity=".28"/><polygon points="0,-48 48,-78 78,-48 0,18" fill="#738291" opacity=".36"/><polygon points="0,18 78,-48 78,48 48,78 0,18" fill="#080b10" opacity=".68"/><polygon points="0,18 -78,48 -48,78 48,78" fill="#202b37" opacity=".72"/><polygon points="-35,-57 10,-65 30,-42 -15,-27" fill="#f4f7f8" opacity=".42"/></g></svg><g><circle cx="37" cy="210" r="17" fill="#ffffff" stroke="#C9A34C" stroke-width="2"/><text x="37" y="216" text-anchor="middle" font-family="system-ui,-apple-system,'Segoe UI',sans-serif" font-size="17" font-weight="800" fill="#2a2a2a">2</text><circle cx="37" cy="255" r="17" fill="#6fa4f0" stroke="#C9A34C" stroke-width="2"/><text x="37" y="261" text-anchor="middle" font-family="system-ui,-apple-system,'Segoe UI',sans-serif" font-size="17" font-weight="800" fill="#ffffff">2</text><circle cx="37" cy="300" r="17" fill="#f0796a" stroke="#C9A34C" stroke-width="2"/><text x="37" y="306" text-anchor="middle" font-family="system-ui,-apple-system,'Segoe UI',sans-serif" font-size="17" font-weight="800" fill="#ffffff">1</text></g><path d="M82 311H219" stroke="#536574" stroke-width=".8"/><text x="151" y="320" text-anchor="middle" font-family="Arial,sans-serif" font-size="4.2" font-weight="700" letter-spacing="1.1" fill="#B8C6CE">DEVELOPMENT CARD</text></svg>